<svg width="29" height="32" viewBox="0 0 29 32" fill="none" xmlns="http://www.w3.org/2000/svg">
<g filter="url(#filter0_d_0_279)">
<path fill-rule="evenodd" clip-rule="evenodd" d="M21.909 0.659016L24.341 3.09098C24.763 3.51294 25 4.08523 25 4.68197V17.25C25 18.4926 23.9926 19.5 22.75 19.5H19V21.75C19 22.9926 17.9926 24 16.75 24H6.25C5.00734 24 4 22.9926 4 21.75V6.75C4 5.50734 5.00734 4.5 6.25 4.5H10V2.25C10 1.00734 11.0073 0 12.25 0H20.3181C20.9147 3.12036e-06 21.4871 0.237058 21.909 0.659016ZM6.53126 21.75H16.4687C16.5434 21.75 16.6149 21.7204 16.6677 21.6677C16.7204 21.6149 16.75 21.5434 16.75 21.4687V19.5H12.25C11.0073 19.5 10 18.4926 10 17.25V6.75H6.53126C6.45665 6.75 6.38512 6.77963 6.33238 6.83238C6.27963 6.88512 6.25 6.95665 6.25 7.03126V21.4687C6.25 21.5434 6.27963 21.6149 6.33238 21.6677C6.38512 21.7204 6.45665 21.75 6.53126 21.75ZM22.4687 17.25H12.5313C12.4567 17.25 12.3851 17.2204 12.3324 17.1677C12.2796 17.1149 12.25 17.0434 12.25 16.9687V2.53126C12.25 2.45665 12.2796 2.38512 12.3324 2.33238C12.3851 2.27963 12.4567 2.25 12.5313 2.25H17.5V6.375C17.5 6.99632 18.0036 7.5 18.625 7.5H22.75V16.9687C22.75 17.0434 22.7204 17.1149 22.6677 17.1677C22.6149 17.2204 22.5434 17.25 22.4687 17.25ZM19.75 5.25H22.75V4.7985C22.75 4.76156 22.7427 4.72499 22.7286 4.69086C22.7145 4.65673 22.6937 4.62572 22.6677 4.59961L20.4004 2.33236C20.3476 2.27963 20.2761 2.25 20.2014 2.25H19.75V5.25Z" fill="#A4FFAF"/>
</g>
<defs>
<filter id="filter0_d_0_279" x="0" y="0" width="29" height="32" filterUnits="userSpaceOnUse" color-interpolation-filters="sRGB">
<feFlood flood-opacity="0" result="BackgroundImageFix"/>
<feColorMatrix in="SourceAlpha" type="matrix" values="0 0 0 0 0 0 0 0 0 0 0 0 0 0 0 0 0 0 127 0" result="hardAlpha"/>
<feOffset dy="4"/>
<feGaussianBlur stdDeviation="2"/>
<feComposite in2="hardAlpha" operator="out"/>
<feColorMatrix type="matrix" values="0 0 0 0 0 0 0 0 0 0 0 0 0 0 0 0 0 0 0.25 0"/>
<feBlend mode="normal" in2="BackgroundImageFix" result="effect1_dropShadow_0_279"/>
<feBlend mode="normal" in="SourceGraphic" in2="effect1_dropShadow_0_279" result="shape"/>
</filter>
</defs>
</svg>
